<svg id="Capa_1" data-name="Capa 1" xmlns="http://www.w3.org/2000/svg" xmlns:xlink="http://www.w3.org/1999/xlink" viewBox="0 0 900 400"><defs><style>.cls-1,.cls-16,.cls-17,.cls-18,.cls-5,.cls-7{fill:none;}.cls-2{fill:#eee;}.cls-3{fill:#ffb100;}.cls-4{fill:#639;}.cls-5{stroke:#639;}.cls-12,.cls-15,.cls-16,.cls-17,.cls-5,.cls-7{stroke-miterlimit:10;}.cls-6{fill:#9e88f2;}.cls-16,.cls-7{stroke:#003;}.cls-16,.cls-18,.cls-7{stroke-linecap:round;}.cls-7{stroke-width:2px;}.cls-8{clip-path:url(#clip-path);}.cls-12,.cls-15,.cls-9{fill:#fff;}.cls-10{fill:#003;}.cls-11{clip-path:url(#clip-path-2);}.cls-12,.cls-15,.cls-17{stroke:#000;}.cls-12{stroke-width:0.5px;}.cls-13{fill:#0b5c4a;}.cls-14{fill:#f60;}.cls-18{stroke:#ffdee4;stroke-linejoin:round;}</style><clipPath id="clip-path"><ellipse class="cls-1" cx="82.47" cy="222.22" rx="15.47" ry="5.75"/></clipPath><clipPath id="clip-path-2"><ellipse class="cls-1" cx="158.53" cy="222.22" rx="15.47" ry="5.75"/></clipPath></defs><title>portada curso PM</title><rect class="cls-1" width="900" height="399.99"/><rect class="cls-2" width="900" height="399.99"/><path class="cls-3" d="M0,258.38S120,154,127,120c42,129,223,218,376,111,168,136,397.37-4,397.37-4V400.61H0Z"/><path class="cls-4" d="M626.7,153.24a5.13,5.13,0,0,1,3.79-4.42,5.37,5.37,0,0,1,3.07-.07,5.17,5.17,0,0,1,2.53,1.67,8.72,8.72,0,0,1,1.66,3.2l.9,3,4.06-1.22,1,3.41L629,163.22l-1.92-6.38A8.72,8.72,0,0,1,626.7,153.24Zm7-.73a2.4,2.4,0,0,0-2.13-.23,2.46,2.46,0,0,0-1.66,1.37,3.75,3.75,0,0,0,0,2.54l.84,2.78,5.11-1.54-.83-2.78A3.79,3.79,0,0,0,633.66,152.51Z"/><path class="cls-4" d="M639.49,133.75l-4.25,3V137l0,3.1,4.29-.06,0,3.56-15.39.23-.1-6.67a8.55,8.55,0,0,1,.63-3.56,5.3,5.3,0,0,1,1.9-2.35,5.4,5.4,0,0,1,3-.86,5.28,5.28,0,0,1,3,.79,5.17,5.17,0,0,1,1.94,2.31l4.9-3.53Zm-11.79,1.08a3.73,3.73,0,0,0-.65,2.45l0,2.9,5.37-.08-.05-2.9a3.65,3.65,0,0,0-.74-2.43,2.77,2.77,0,0,0-4,.06Z"/><path class="cls-4" d="M639.89,124.35a7.67,7.67,0,0,1-7.8,2,7.75,7.75,0,0,1-3.61-2.19,7.66,7.66,0,0,1-1.89-3.7,9.5,9.5,0,0,1,2.43-8.28,7.73,7.73,0,0,1,3.58-2.09,8.11,8.11,0,0,1,7.83,2.29,7.75,7.75,0,0,1,1.89,3.7,9.5,9.5,0,0,1-2.43,8.28Zm-.61-7.25a4.56,4.56,0,0,0-1.2-2.15,5.13,5.13,0,0,0-2.27-1.32,5,5,0,0,0-2.62-.11,4.46,4.46,0,0,0-2.17,1.16,4.84,4.84,0,0,0-1.29,2.19,4.79,4.79,0,0,0-.09,2.54,4.46,4.46,0,0,0,1.19,2.15,5.19,5.19,0,0,0,2.27,1.32,5,5,0,0,0,2.63.11,4.48,4.48,0,0,0,2.16-1.16,5.14,5.14,0,0,0,1.39-4.73Z"/><path class="cls-4" d="M645.42,110.19a5.54,5.54,0,0,1-2.53,1l-1-2.93a3.54,3.54,0,0,0,2.93-1.57q1.14-1.86-1-3.18l-6.26-3.8-2.81,4.63-2.45-1.49,4.65-7.65,8.54,5.18a5.8,5.8,0,0,1,2.91,3.41,5.59,5.59,0,0,1-.93,4.27A7,7,0,0,1,645.42,110.19Z"/><path class="cls-4" d="M658.57,89.69l2,2-8.4,8.46L641.27,89.32l8.2-8.26,2,2-5.7,5.75,2.37,2.36,5-5.08,2,2-5,5.07,2.52,2.51Z"/><path class="cls-4" d="M665,87.9a7.71,7.71,0,0,1-4-1,8.29,8.29,0,0,1-4.09-7.12,7.66,7.66,0,0,1,1.18-4,9,9,0,0,1,3.2-3,9.06,9.06,0,0,1,3.49-1.19,7.25,7.25,0,0,1,3.37.4l-.94,3a4.91,4.91,0,0,0-4.25.37,5.1,5.1,0,0,0-1.9,1.81,4.48,4.48,0,0,0-.65,2.39A5.5,5.5,0,0,0,663,84a4.36,4.36,0,0,0,2.38.65,5.11,5.11,0,0,0,2.53-.73,4.89,4.89,0,0,0,2.45-3.51l3,.69A7.16,7.16,0,0,1,672,84.24a9,9,0,0,1-2.8,2.42A8.75,8.75,0,0,1,665,87.9Z"/><path class="cls-4" d="M677.39,69.57l-4.77,1.24L671.89,68l13-3.39.73,2.81-4.77,1.25L684,80.76l-3.45.9Z"/><path class="cls-4" d="M711.26,81l1.51-9.12L707,78.68l-1.58-.27-3.22-8.06-1.5,8.92-3.3-.55L700,63.53l2.91.49L707,74.41l7.18-8.5,2.89.48-2.51,15.2Z"/><path class="cls-4" d="M728.29,84.93,722,81.56l-2.76,2.26L716,82.1l13.33-10.33,3.1,1.66-1.21,16.82-3.29-1.76Zm.29-2.91.64-6.35-4.94,4Z"/><path class="cls-4" d="M753.23,90.64l-11,10.8-2-2.09,1.28-12-6.67,6.56-2.47-2.5,11-10.81,2.07,2.1-1.3,12,6.67-6.56Z"/><path class="cls-4" d="M751.87,111.89l-3.28-6.36-3.56.3-1.67-3.24,16.83-1,1.62,3.13-10.54,13.18-1.71-3.33Zm1.89-2.24,4.12-4.87-6.36.53Z"/><path class="cls-4" d="M761.14,127.57l.63,3.2L755.64,132a9.54,9.54,0,0,1-2-2.57,11.52,11.52,0,0,1-1.14-3.16,9,9,0,0,1,.17-4.43,7.62,7.62,0,0,1,2.2-3.49,8.24,8.24,0,0,1,8-1.59,7.52,7.52,0,0,1,3.37,2.41,9.21,9.21,0,0,1,1.85,4.08,9.39,9.39,0,0,1,0,3.73,7.29,7.29,0,0,1-1.4,3.11l-2.52-1.84a5.27,5.27,0,0,0,.94-4.24,5.47,5.47,0,0,0-1.11-2.45,4.47,4.47,0,0,0-2.05-1.41,5.46,5.46,0,0,0-5,1,4.52,4.52,0,0,0-1.38,2.08,5.27,5.27,0,0,0-.11,2.66,5.82,5.82,0,0,0,1.18,2.59Z"/><path class="cls-4" d="M755.82,147.72l-2.85-.23,1-11.89,15.35,1.28-1,11.6-2.85-.24.67-8.06-3.33-.28-.6,7.12-2.76-.23.6-7.12-3.56-.3Z"/><path class="cls-4" d="M748.91,159.56l5.05-1.3.06-.16,1.08-2.91-4-1.49,1.23-3.34,14.45,5.34L764.44,162a8.5,8.5,0,0,1-1.87,3.1,5.3,5.3,0,0,1-2.62,1.5,5.39,5.39,0,0,1-3.07-.26,5,5,0,0,1-3.46-4.66l-5.84,1.52Zm11.38,3.25a3.73,3.73,0,0,0,1.5-2.05l1-2.73-5-1.86-1,2.73a3.67,3.67,0,0,0-.18,2.53,2.78,2.78,0,0,0,3.72,1.38Z"/><path class="cls-5" d="M557,112.26c6-2.28,10-6.64,8.82-9.78s-7-3.87-13.07-1.65h0l-1.88.7-8.7,3.23-1.88.7h0c-6,2.28-10,6.64-8.82,9.78s7,3.86,13.06,1.65h0l1.88-.7L555.1,113l1.88-.7Z"/><path class="cls-5" d="M552,100.5c-2.28-6-6.64-10-9.78-8.81s-3.86,7-1.64,13.06h0l.7,1.88,3.24,8.7.69,1.88h0c2.28,6,6.64,10,9.77,8.82s3.87-7,1.65-13.06h0l-.69-1.88-3.24-8.71-.7-1.88Z"/><path class="cls-4" d="M723.77,129.85l-.14-.06a4.23,4.23,0,0,1-1.93-6c.08-.13.15-.26.22-.39a4.24,4.24,0,0,0-4.09-6.34l-.16,0a4.23,4.23,0,0,1-4.66-4.23v-.44a4.24,4.24,0,0,0-6.72-3.44l-.11.08a4.23,4.23,0,0,1-6.16-1.31c-.08-.13-.15-.26-.22-.39a4.24,4.24,0,0,0-7.54.37l-.06.15a4.24,4.24,0,0,1-6,1.93l-.39-.23a4.24,4.24,0,0,0-6.34,4.1l0,.15a4.24,4.24,0,0,1-4.23,4.67h-.44a4.24,4.24,0,0,0-3.44,6.72l.08.11a4.23,4.23,0,0,1-1.32,6.16l-.38.22a4.24,4.24,0,0,0,.37,7.54l.15.06a4.24,4.24,0,0,1,1.93,6c-.08.13-.15.26-.23.38a4.25,4.25,0,0,0,4.1,6.35l.15,0a4.24,4.24,0,0,1,4.67,4.22v.44a4.24,4.24,0,0,0,6.72,3.45l.11-.09a4.24,4.24,0,0,1,6.16,1.32l.22.39a4.24,4.24,0,0,0,7.54-.38l.06-.14a4.23,4.23,0,0,1,6-1.93l.38.22a4.23,4.23,0,0,0,6.34-4.09v-.16a4.23,4.23,0,0,1,4.22-4.66h.44a4.23,4.23,0,0,0,3.44-6.72l-.08-.11a4.24,4.24,0,0,1,1.32-6.16l.39-.22A4.24,4.24,0,0,0,723.77,129.85Zm-15.54,5.88-.16.09a1.76,1.76,0,0,0-.55,2.55l0,0a1.75,1.75,0,0,1-1.43,2.78H706a1.76,1.76,0,0,0-1.75,1.94v.06a1.75,1.75,0,0,1-2.62,1.7l-.16-.09a1.75,1.75,0,0,0-2.49.8l0,.06a1.76,1.76,0,0,1-3.13.15l-.09-.16a1.76,1.76,0,0,0-2.55-.55l0,0a1.76,1.76,0,0,1-2.79-1.43v-.18a1.74,1.74,0,0,0-1.93-1.75h-.07a1.75,1.75,0,0,1-1.69-2.62l.09-.16a1.77,1.77,0,0,0-.8-2.49l-.06,0a1.76,1.76,0,0,1-.15-3.13l.16-.09a1.75,1.75,0,0,0,.54-2.55l0,0a1.76,1.76,0,0,1,1.43-2.79H688a1.74,1.74,0,0,0,1.75-1.93v-.06a1.76,1.76,0,0,1,2.63-1.7l.16.09a1.75,1.75,0,0,0,2.48-.8l0-.06a1.76,1.76,0,0,1,3.13-.15l.09.16a1.75,1.75,0,0,0,2.55.54l.05,0a1.75,1.75,0,0,1,2.78,1.43v.18a1.76,1.76,0,0,0,1.94,1.75h.06a1.76,1.76,0,0,1,1.7,2.63l-.09.16a1.74,1.74,0,0,0,.8,2.48l.06,0A1.76,1.76,0,0,1,708.23,135.73Z"/><path class="cls-6" d="M483,275A125,125,0,0,0,358,400h71a54,54,0,0,1,108,0h71A125,125,0,0,0,483,275Z"/><path class="cls-4" d="M140.43,87a.28.28,0,0,1,0-.09,14.1,14.1,0,0,1-14.12-14.26h0a14.12,14.12,0,0,1-14.11,13.9v.08a14.12,14.12,0,0,1,14.11,14.27h0A14.1,14.1,0,0,1,140.43,87Z"/><path class="cls-4" d="M151.37,59.22v-.08a14.12,14.12,0,0,1-14.11-14.27h0a14.1,14.1,0,0,1-14.11,13.9.28.28,0,0,0,0,.09,14.1,14.1,0,0,1,14.12,14.26h0a14.12,14.12,0,0,1,14.11-13.9Z"/><path class="cls-4" d="M125.24,65.73v-.08a14.14,14.14,0,0,1-14.12-14.26h0A14.12,14.12,0,0,1,97,65.29v.08a14.14,14.14,0,0,1,14.12,14.26h0a14.14,14.14,0,0,1,14.12-13.9Z"/><path class="cls-5" d="M339.23,122.19c2.39-5.29,2.13-10.56-.61-11.82s-6.9,2-9.35,7.26h0l-.75,1.64-3.47,7.59-.76,1.64h0c-2.39,5.29-2.13,10.56.61,11.82s6.9-2,9.34-7.26h0l.75-1.63,3.47-7.59.76-1.64Z"/><path class="cls-5" d="M328.61,117.87c-5.28-2.39-10.56-2.12-11.81.61s2,6.9,7.25,9.35h0l1.64.75,7.59,3.48,1.63.75h0c5.28,2.39,10.56,2.12,11.81-.61s-2-6.9-7.25-9.35h0l-1.64-.75-7.59-3.48-1.64-.75Z"/><path class="cls-7" d="M109.25,222.2S110.78,236,121.5,236s10.72-13.78,10.72-13.78"/><g class="cls-8"><ellipse class="cls-9" cx="82.47" cy="222.22" rx="15.47" ry="5.75"/><ellipse class="cls-10" cx="82.47" cy="222.22" rx="2.53" ry="11.05"/></g><g class="cls-11"><ellipse class="cls-9" cx="158.53" cy="222.22" rx="15.47" ry="5.75"/><ellipse class="cls-10" cx="158.53" cy="222.22" rx="2.53" ry="11.05"/></g><path class="cls-12" d="M514.42,68.38s-2.36,4.25-3.93,6.5a1.38,1.38,0,0,1-2.49-.8V52.88s.4-1.46,1.93-.61,18.23,11.17,18.23,11.17,1.1,1.38-.73,1.8a70.59,70.59,0,0,1-7.79.54l6.27,11.11L521,79.54Z"/><path class="cls-13" d="M474.42,59.76V59.7a10.31,10.31,0,0,1-10.31-10.41h0A10.31,10.31,0,0,1,453.8,59.44v.06a10.31,10.31,0,0,1,10.31,10.41h0a10.31,10.31,0,0,1,10.31-10.15Z"/><path class="cls-14" d="M482.41,39.48v-.06A10.33,10.33,0,0,1,472.1,29h0a10.31,10.31,0,0,1-10.3,10.15v.06a10.31,10.31,0,0,1,10.31,10.42h0a10.31,10.31,0,0,1,10.31-10.15Z"/><path class="cls-6" d="M463.32,44.23v-.06A10.31,10.31,0,0,1,453,33.76h0A10.31,10.31,0,0,1,442.7,43.91V44A10.31,10.31,0,0,1,453,54.38h0a10.31,10.31,0,0,1,10.31-10.15Z"/><path class="cls-14" d="M358.47,73.87c2.09-4.62,1.86-9.23-.53-10.33s-6,1.74-8.17,6.34h0l-.65,1.43-3.05,6.63-.66,1.43h0c-2.1,4.62-1.87,9.23.52,10.33s6-1.73,8.18-6.33h0l.66-1.43,3-6.63.66-1.44Z"/><path class="cls-14" d="M349.19,70.09c-4.62-2.09-9.23-1.86-10.33.53s1.73,6,6.33,8.17h0l1.43.66,6.63,3,1.44.66h0c4.62,2.1,9.23,1.87,10.33-.52s-1.74-6-6.34-8.18h0l-1.43-.66-6.63-3-1.43-.66Z"/><rect class="cls-1" width="900" height="399.99"/><path class="cls-15" d="M556.81,265l1-.57a10.94,10.94,0,0,0-1-19.46l-.38-.16a10.93,10.93,0,0,1-5-15.47l.57-1A10.94,10.94,0,0,0,541.5,212l-.41,0a10.92,10.92,0,0,1-12-10.9c0-.38,0-.76,0-1.14a10.94,10.94,0,0,0-17.35-8.88l-.29.21a10.92,10.92,0,0,1-15.9-3.41l-.57-1a10.94,10.94,0,0,0-19.46,1l-.16.37a10.91,10.91,0,0,1-15.46,5l-1-.57a10.94,10.94,0,0,0-16.37,10.56c0,.14,0,.28.05.41a10.93,10.93,0,0,1-10.91,12h-1.13A10.94,10.94,0,0,0,421.63,233l.21.3a10.92,10.92,0,0,1-3.4,15.89l-1,.57a10.94,10.94,0,0,0,1,19.46l.37.17a10.92,10.92,0,0,1,5,15.46l-.57,1a10.93,10.93,0,0,0,10.56,16.37l.4,0a10.91,10.91,0,0,1,12,10.9v1.14a10.94,10.94,0,0,0,17.35,8.88l.29-.21a10.93,10.93,0,0,1,15.9,3.41l.57,1a10.93,10.93,0,0,0,19.45-1c.06-.12.11-.25.17-.37a10.91,10.91,0,0,1,15.46-5l1,.57A10.93,10.93,0,0,0,532.73,311c0-.14,0-.28,0-.41a10.93,10.93,0,0,1,10.9-12h1.14a10.94,10.94,0,0,0,8.89-17.34l-.22-.3A10.93,10.93,0,0,1,556.81,265Z"/><circle class="cls-9" cx="485.36" cy="229.52" r="4.09"/><circle class="cls-10" cx="485.36" cy="229.52" r="2.19"/><circle class="cls-9" cx="444.5" cy="229.52" r="4.09"/><circle class="cls-10" cx="444.5" cy="229.52" r="2.19"/><path class="cls-16" d="M459.17,228s.75,6.73,6,6.73,5.23-6.73,5.23-6.73"/><path class="cls-17" d="M559.84,170a9.11,9.11,0,0,1-9.79,2,8.45,8.45,0,0,1-5.22-8.22c.23-3.55,3-4,5.16-2.22-.13-1.6,0-4.53,1.48-5.17,2-.86,5.76,2.74,3.62,3s-1.07-5.28.92-6.31c3.58-1.88,6,2.87,3.8,2.45-1.92-.37,1.26-5.8,5.69-4.33,7.32,2.44,3,12.56-1.48,14.77"/><path class="cls-17" d="M331.42,178.58s-12.55,0-13.29-6.65,5.9-1.48,5.9-1.48-2-8,2.22-5.9c1.48.73,2.95,2.21,3.69,5.9,0-2.95,3.69-11.81,5.17-6.64.45,1.58,0,7.38,0,7.38s5.91-8.12,7.39-4.43-3,10.34-7.39,11.82"/><path class="cls-17" d="M530.06,229.53s29.53-25.11,30.27-65.72"/><path class="cls-17" d="M427.41,257.59s-83.44-14-93.78-76.06"/><polygon class="cls-3" points="392.7 46.75 392.75 55.36 400.95 54.44 395.97 61.22 402.65 65.68 406.44 57.34 410.31 65.64 416.95 61.1 411.9 54.38 420.11 55.21 420.06 46.6 411.86 47.53 416.84 40.75 410.16 36.28 406.37 44.62 402.5 36.32 395.86 40.86 400.92 47.59 392.7 46.75"/><path class="cls-18" d="M251.84,331.21S266,339,270.89,362c0,0,0-27.36,23-30.78"/><path class="cls-18" d="M270,332.51s14.17,7.82,19.06,30.78c0,0,0-27.36,23-30.78"/><path class="cls-18" d="M642.84,311.21S657,319,661.89,342c0,0,0-27.36,23-30.78"/><path class="cls-18" d="M661,312.51s14.17,7.82,19.06,30.78c0,0,0-27.36,23-30.78"/><path class="cls-18" d="M798.84,349.21S813,357,817.89,380c0,0,0-27.36,23-30.78"/><path class="cls-18" d="M817,350.51s14.17,7.82,19.06,30.78c0,0,0-27.36,23-30.78"/><path class="cls-18" d="M52.84,296.21S67,304,71.89,327c0,0,0-27.36,23-30.78"/><path class="cls-18" d="M71,297.51S85.15,305.33,90,328.29c0,0,0-27.36,23-30.78"/></svg>